<svg xmlns="http://www.w3.org/2000/svg" viewBox="0 0 512 512" role="img" aria-label="FootyCompass icon (square)">
  <defs>
    <linearGradient id="bg" x1="0" y1="0" x2="1" y2="1">
      <stop offset="0" stop-color="#07110d" />
      <stop offset="1" stop-color="#0b2a1a" />
    </linearGradient>
    <linearGradient id="ring" x1="96" y1="100" x2="416" y2="414" gradientUnits="userSpaceOnUse">
      <stop offset="0" stop-color="#38bdf8" />
      <stop offset="1" stop-color="#22c55e" />
    </linearGradient>
  </defs>

  <rect width="512" height="512" rx="112" fill="url(#bg)" />
  <rect
    x="52"
    y="52"
    width="408"
    height="408"
    rx="130"
    fill="rgba(255,255,255,0.06)"
    stroke="rgba(255,255,255,0.10)"
    stroke-width="6"
  />

  <circle cx="256" cy="256" r="204" fill="none" stroke="url(#ring)" stroke-width="26" />
  <circle cx="256" cy="256" r="204" fill="none" stroke="rgba(255,255,255,0.10)" stroke-width="2" />

  <g fill="rgba(0,0,0,0.55)">
    <path d="M256 42l16 42h-32z" />
    <path d="M256 470l-16-42h32z" />
    <path d="M42 256l42-16v32z" />
    <path d="M470 256l-42 16v-32z" />
  </g>

  <circle cx="256" cy="256" r="144" fill="#f8fafc" opacity="0.98" />
  <circle cx="256" cy="256" r="144" fill="none" stroke="rgba(15,23,42,0.18)" stroke-width="6" />
  <path
    d="M256 178.5 307.4 216.0 287.8 276.4 224.2 276.4 204.6 216.0Z"
    fill="#0f172a"
    opacity="0.95"
  />
  <g stroke="rgba(15,23,42,0.28)" stroke-width="6" stroke-linecap="round" stroke-linejoin="round" fill="none">
    <path d="M256 178.5 307.4 216.0 287.8 276.4 224.2 276.4 204.6 216.0Z" />
    <path d="M256 178.5 215 150" />
    <path d="M256 178.5 297 150" />
    <path d="M307.4 216.0 344 250" />
    <path d="M287.8 276.4 320 346" />
    <path d="M224.2 276.4 192 320" />
    <path d="M204.6 216.0 168 250" />
  </g>

  <g transform="translate(256 256)">
    <path d="M0 -176 L44 -18 L0 24 L-44 -18 Z" fill="#ffffff" opacity="0.96" />
    <path d="M0 -168 L34 -26 L0 -2 Z" fill="#ef4444" />
    <path d="M0 -168 L0 -2 L-34 -26 Z" fill="#22c55e" />
    <path d="M0 24 L26 62 L0 190 L-26 62 Z" fill="#ffffff" opacity="0.96" />
    <circle cx="0" cy="0" r="22" fill="#ffffff" opacity="0.96" />
    <circle cx="0" cy="0" r="10" fill="rgba(15,23,42,0.22)" />
  </g>
</svg>
