<svg xmlns="http://www.w3.org/2000/svg" width="1200" height="630" viewBox="0 0 1200 630">
  <defs>
    <linearGradient id="bg" x1="0" y1="0" x2="1" y2="1">
      <stop offset="0" stop-color="#0f172a" />
      <stop offset="1" stop-color="#052e16" />
    </linearGradient>
    <linearGradient id="accent" x1="0" y1="0" x2="1" y2="0">
      <stop offset="0" stop-color="#22c55e" />
      <stop offset="1" stop-color="#38bdf8" />
    </linearGradient>
    <filter id="softShadow" x="-20%" y="-20%" width="140%" height="140%">
      <feDropShadow dx="0" dy="18" stdDeviation="18" flood-color="#000" flood-opacity="0.35" />
    </filter>
  </defs>

  <rect width="1200" height="630" fill="url(#bg)" />

  <g opacity="0.28">
    <circle cx="980" cy="110" r="180" fill="#22c55e" />
    <circle cx="160" cy="560" r="220" fill="#38bdf8" />
  </g>

  <g filter="url(#softShadow)">
    <rect x="86" y="92" width="1028" height="446" rx="32" fill="rgba(255,255,255,0.06)" stroke="rgba(255,255,255,0.10)" />
  </g>

  <rect x="120" y="134" width="160" height="10" rx="5" fill="url(#accent)" />

  <!-- Brand icon -->
  <g transform="translate(868 176) scale(0.58)" opacity="0.98">
    <defs>
      <linearGradient id="ring" x1="64" y1="80" x2="448" y2="432" gradientUnits="userSpaceOnUse">
        <stop offset="0" stop-color="#38bdf8" />
        <stop offset="1" stop-color="#22c55e" />
      </linearGradient>
    </defs>
    <circle cx="256" cy="256" r="204" fill="none" stroke="url(#ring)" stroke-width="26" />
    <circle cx="256" cy="256" r="204" fill="none" stroke="rgba(255,255,255,0.10)" stroke-width="2" />
    <g fill="rgba(0,0,0,0.55)">
      <path d="M256 30l18 46h-36z" />
      <path d="M256 482l-18-46h36z" />
      <path d="M30 256l46-18v36z" />
      <path d="M482 256l-46 18v-36z" />
    </g>
    <circle cx="256" cy="256" r="144" fill="#f8fafc" opacity="0.98" />
    <circle cx="256" cy="256" r="144" fill="none" stroke="rgba(15,23,42,0.18)" stroke-width="6" />
    <path d="M256 178.5 307.4 216.0 287.8 276.4 224.2 276.4 204.6 216.0Z" fill="#0f172a" opacity="0.95" />
    <g stroke="rgba(15,23,42,0.28)" stroke-width="6" stroke-linecap="round" stroke-linejoin="round" fill="none">
      <path d="M256 178.5 307.4 216.0 287.8 276.4 224.2 276.4 204.6 216.0Z" />
      <path d="M256 178.5 215 150" />
      <path d="M256 178.5 297 150" />
      <path d="M307.4 216.0 344 250" />
      <path d="M287.8 276.4 320 346" />
      <path d="M224.2 276.4 192 320" />
      <path d="M204.6 216.0 168 250" />
    </g>
    <g transform="translate(256 256)">
      <path d="M0 -176 L44 -18 L0 24 L-44 -18 Z" fill="#ffffff" opacity="0.96" />
      <path d="M0 -168 L34 -26 L0 -2 Z" fill="#ef4444" />
      <path d="M0 -168 L0 -2 L-34 -26 Z" fill="#22c55e" />
      <path d="M0 24 L26 62 L0 190 L-26 62 Z" fill="#ffffff" opacity="0.96" />
      <circle cx="0" cy="0" r="22" fill="#ffffff" opacity="0.96" />
      <circle cx="0" cy="0" r="10" fill="rgba(15,23,42,0.22)" />
    </g>
  </g>

  <text x="120" y="258" font-family="Inter, ui-sans-serif, system-ui, -apple-system, Segoe UI, Roboto, Helvetica, Arial"
        font-size="92" font-weight="850" fill="#f8fafc" letter-spacing="-1">
    Footy<tspan fill="#22c55e">Compass</tspan>
  </text>
  <text x="120" y="330" font-family="Inter, ui-sans-serif, system-ui, -apple-system, Segoe UI, Roboto, Helvetica, Arial"
        font-size="38" font-weight="650" fill="rgba(226,232,240,0.92)">
    Football discovery &amp; learning - profiles, quizzes, and study paths.
  </text>

  <text x="120" y="402" font-family="Inter, ui-sans-serif, system-ui, -apple-system, Segoe UI, Roboto, Helvetica, Arial"
        font-size="30" font-weight="600" fill="rgba(209,250,229,0.92)">
    Players | Clubs | Leagues | National teams | Quizzes
  </text>

  <g transform="translate(120, 448)">
    <circle cx="22" cy="22" r="22" fill="rgba(255,255,255,0.10)" stroke="rgba(255,255,255,0.14)" />
    <text x="22" y="30" text-anchor="middle"
          font-family="Inter, ui-sans-serif, system-ui, -apple-system, Segoe UI, Roboto, Helvetica, Arial"
          font-size="22" font-weight="800" fill="#f8fafc">FC</text>
    <text x="60" y="30" font-family="Inter, ui-sans-serif, system-ui, -apple-system, Segoe UI, Roboto, Helvetica, Arial"
          font-size="24" font-weight="650" fill="rgba(226,232,240,0.92)">footycompass.com</text>
  </g>
</svg>

